<?xml version="1.0" encoding="utf-8"?>
<!-- Generator: Adobe Illustrator 19.2.0, SVG Export Plug-In . SVG Version: 6.00 Build 0)  -->
<svg version="1.1" id="Layer_1_copy" xmlns="http://www.w3.org/2000/svg" xmlns:xlink="http://www.w3.org/1999/xlink" x="0px"
	 y="0px" viewBox="0 0 1080 1080" style="enable-background:new 0 0 1080 1080;" xml:space="preserve">
<style type="text/css">
	.st0{fill:url(#SVGID_1_);stroke:#FFFFFF;stroke-width:2;stroke-miterlimit:10;}
	.st1{stroke:#FFFFFF;stroke-width:5;stroke-miterlimit:10;}
	.st2{fill:none;stroke:#000000;stroke-width:5;stroke-miterlimit:10;}
	.st3{fill:#FFFFFF;stroke:#FFFFFF;stroke-width:4;stroke-miterlimit:10;}
	.st4{fill:#FFFFFF;stroke:#FFFFFF;stroke-width:5;stroke-miterlimit:10;}
	.st5{fill:none;stroke:#000000;stroke-miterlimit:10;}
	.st6{fill:#FFFFFF;}
	.st7{fill:none;stroke:#000000;stroke-width:3;stroke-miterlimit:10;}
	.st8{fill:#D47910;}
	.st9{font-family:'Ballsontherampage';}
	.st10{font-size:145.7031px;}
	.st11{fill:#FFFFFF;stroke:#FFFFFF;stroke-width:3;stroke-miterlimit:10;}
	.st12{fill:#FFFFFF;stroke:#FFFFFF;stroke-width:2;stroke-miterlimit:10;}
</style>
<linearGradient id="SVGID_1_" gradientUnits="userSpaceOnUse" x1="539.7894" y1="1082.5126" x2="539.7894" y2="-2.396973e-08">
	<stop  offset="0" style="stop-color:#00A0C6"/>
	<stop  offset="1" style="stop-color:#111183"/>
</linearGradient>
<path class="st0" d="M1073.7,1082.5H5.9c-4.6,0-8.4-3.8-8.4-8.4V8.4C-2.5,3.8,1.3,0,5.9,0h1067.7c4.6,0,8.4,3.8,8.4,8.4v1065.7
	C1082.1,1078.7,1078.3,1082.5,1073.7,1082.5z"/>
<path class="st1" d="M950.4,219.6h-824c-15.8,0-28.6-12.8-28.6-28.6v-83.4c0-15.8,12.8-28.6,28.6-28.6h824
	c15.8,0,28.6,12.8,28.6,28.6V191C979,206.8,966.2,219.6,950.4,219.6z"/>
<g>
	<path class="st2" d="M351.6,956.1"/>
</g>
<path class="st2" d="M16.4,778.3"/>
<g>
	
		<rect x="86.9" y="822.3" transform="matrix(0.4642 -0.8857 0.8857 0.4642 -757.6628 566.462)" class="st3" width="5" height="174.5"/>
</g>
<g>
	<path class="st2" d="M353.6,985.2"/>
</g>
<g>
	<path class="st2" d="M445.7,985.2"/>
</g>
<line class="st4" x1="12.6" y1="869.8" x2="12.6" y2="790.6"/>
<g>
	<path class="st2" d="M733.7,985.2"/>
</g>
<g>
	<path class="st2" d="M971.7,841.5"/>
</g>
<g>
	<path class="st2" d="M971.3,897.7"/>
</g>
<g>
	<path class="st2" d="M733.7,985.2"/>
</g>
<g>
	<path class="st2" d="M1005.4,899.6"/>
</g>
<g>
	<path class="st5" d="M183.9,767.2"/>
</g>
<g>
	<path class="st5" d="M394.5,767.2"/>
</g>
<g>
	<path class="st5" d="M897.9,741.7"/>
</g>
<g>
	<path class="st5" d="M921.1,690.4"/>
</g>
<g>
	<path class="st5" d="M157.9,690.4"/>
</g>
<g>
	<path class="st5" d="M157.9,707.1"/>
</g>
<g>
	<path class="st5" d="M157.9,735.9"/>
</g>
<g>
	<path class="st5" d="M157.9,747.2"/>
</g>
<g>
	<g>
		<polygon class="st4" points="138.7,679.9 133.7,679.9 133.7,321.5 938.9,321.5 938.9,678.1 933.9,678.1 933.9,326.5 138.7,326.5 
					"/>
	</g>
	<g>
		
			<rect x="266.6" y="571.5" transform="matrix(0.2219 -0.9751 0.9751 0.2219 -480.7317 813.1186)" class="st4" width="5" height="272.5"/>
	</g>
	<g>
		<rect x="402" y="735.5" class="st4" width="268.6" height="5"/>
	</g>
	<g>
		
			<rect x="667.1" y="705.3" transform="matrix(0.9751 -0.2219 0.2219 0.9751 -137.0204 195.9072)" class="st4" width="272.5" height="5"/>
	</g>
</g>
<g>
	<g>
		<polygon class="st4" points="91.9,722.4 86.9,722.4 86.9,270.4 992,270.4 992,696 987,696 987,275.4 91.9,275.4 		"/>
	</g>
	<g>
		
			<rect x="231" y="610.4" transform="matrix(0.2466 -0.9691 0.9691 0.2466 -559.7106 798.1384)" class="st4" width="5" height="297.3"/>
	</g>
	<g>
		<rect x="377.5" y="793.2" class="st4" width="317.6" height="5"/>
	</g>
	<g>
		
			<rect x="686.9" y="743.3" transform="matrix(0.9472 -0.3207 0.3207 0.9472 -194.692 309.5006)" class="st4" width="310.8" height="5"/>
	</g>
</g>
<g>
	<path class="st5" d="M191.7,955.2"/>
</g>
<g>
	<g>
		<polygon class="st6" points="105.6,1047.9 32.2,1047.9 32.2,1008.4 35.2,1008.4 35.2,1044.9 105.6,1044.9 		"/>
	</g>
	<g>
		
			<rect x="68.2" y="986.7" transform="matrix(0.4679 -0.8838 0.8838 0.4679 -870.9302 608.269)" class="st6" width="3" height="81.3"/>
	</g>
</g>
<g>
	<path class="st7" d="M971.3,984.4"/>
</g>
<g>
	<path class="st7" d="M923.7,984.4"/>
</g>
<g>
	<path class="st7" d="M923.7,984.4"/>
</g>
<g>
	<path class="st7" d="M971.3,959.2"/>
</g>
<text transform="matrix(1.1226 0 0 1 351.9283 203.0142)" class="st8 st9 st10"> LAGOS</text>
<g>
	
		<rect x="166.8" y="946.7" transform="matrix(1 -4.882754e-03 4.882754e-03 1 -4.6317 1.3101)" class="st3" width="198.4" height="5"/>
</g>
<g>
	
		<rect x="191.3" y="595.1" transform="matrix(0.4026 -0.9154 0.9154 0.4026 -626.1457 661.6498)" class="st4" width="5" height="430.9"/>
</g>
<g>
	<rect x="387.8" y="894.5" class="st4" width="314.2" height="5"/>
</g>
<g>
	<path class="st2" d="M1080,768.5"/>
</g>
<g>
	<path class="st2" d="M748.7,1034.8"/>
</g>
<g>
	<path class="st2" d="M1082.4,953.7"/>
</g>
<g>
	<g>
		<polygon class="st6" points="1056.5,1045.3 983.2,1045.3 983.2,1042.3 1053.5,1042.3 1053.5,1005.8 1056.5,1005.8 		"/>
	</g>
	<g>
		
			<rect x="978.4" y="1023.3" transform="matrix(0.8836 -0.4682 0.4682 0.8836 -361.2165 596.38)" class="st6" width="81.3" height="3"/>
	</g>
</g>
<g>
	<path class="st2" d="M319.7,989.3"/>
</g>
<g>
	<path class="st2" d="M791.1,985.3"/>
</g>
<g>
	<path class="st2" d="M1034.3,812.3"/>
</g>
<g>
	<path class="st2" d="M889.4,986.6"/>
</g>
<g>
	<path class="st2" d="M1036.2,898.7"/>
</g>
<g>
	<path class="st2" d="M1035.6,808.9"/>
</g>
<g>
	<path class="st2" d="M1051.6,875.4"/>
</g>
<g>
	<path class="st2" d="M894.9,985.3"/>
</g>
<g>
	<path class="st2" d="M791.1,985.3"/>
</g>
<g>
	
		<rect x="684.1" y="809.2" transform="matrix(0.9134 -0.4071 0.4071 0.9134 -253.2699 433.0494)" class="st4" width="414" height="5"/>
</g>
<g>
	<rect x="187" y="679.5" transform="matrix(0.4026 -0.9154 0.9154 0.4026 -684.5161 694.046)" class="st3" width="5" height="384"/>
</g>
<g>
	
		<rect x="890" y="912.1" transform="matrix(0.8857 -0.4642 0.4642 0.8857 -312.8595 558.0873)" class="st11" width="174.5" height="5"/>
</g>
<g>
	<rect x="1051.5" y="795.7" class="st3" width="5" height="79.2"/>
</g>
<g>
	
		<rect x="798.1" y="855.1" transform="matrix(4.956404e-03 -1 1 4.956404e-03 -157.605 1750.1696)" class="st3" width="5" height="198.4"/>
</g>
<g>
	<rect x="685.2" y="874" transform="matrix(0.9153 -0.4028 0.4028 0.9153 -278.7295 427.526)" class="st3" width="384" height="5"/>
</g>
<g>
	<rect x="483.6" y="376.8" class="st12" width="5" height="185.4"/>
</g>
<g>
	
		<rect x="410.2" y="296.6" transform="matrix(0.7076 -0.7066 0.7066 0.7076 -162.24 408.7161)" class="st12" width="5" height="207.6"/>
</g>
<g>
	<line class="st6" x1="577" y1="376.8" x2="577" y2="562.2"/>
	<rect x="574.5" y="376.8" class="st6" width="5" height="185.4"/>
</g>
<g>
	<line class="st12" x1="723.7" y1="325" x2="577" y2="471.9"/>
	
		<rect x="546.6" y="396" transform="matrix(0.7067 -0.7075 0.7075 0.7067 -91.1601 577.0099)" class="st12" width="207.6" height="5"/>
</g>
<g>
</g>
<g>
	<g>
		<line class="st3" x1="733.4" y1="1029.4" x2="351.3" y2="1027.5"/>
		
			<rect x="539.8" y="837.4" transform="matrix(5.017093e-03 -1 1 5.017093e-03 -488.7928 1565.6364)" class="st3" width="5.2" height="382.1"/>
	</g>
	<g>
		<line class="st3" x1="1078.7" y1="922.5" x2="733.4" y2="1029.4"/>
		<polygon class="st3" points="734.1,1031.9 732.7,1026.9 1078,920 1079.5,925 		"/>
	</g>
	<g>
		<line class="st3" x1="-0.5" y1="921" x2="351.3" y2="1027.5"/>
		<polygon class="st3" points="350.6,1030 -1.2,923.5 0.2,918.6 352,1025 		"/>
	</g>
	<g>
		<line class="st3" x1="-0.5" y1="921" x2="-0.5" y2="1070.7"/>
		<rect x="-2" y="921" class="st3" width="3" height="149.6"/>
	</g>
	<g>
		<line class="st3" x1="1078.7" y1="922.5" x2="1078.7" y2="1070.7"/>
		<rect x="1077.2" y="922.5" class="st3" width="3" height="148.2"/>
	</g>
	<g>
		<line class="st3" x1="2.8" y1="1075" x2="1082" y2="1075"/>
		<rect x="2.8" y="1073.5" class="st3" width="1079.2" height="3.1"/>
	</g>
</g>
</svg>
